<svg width="37" height="37" viewBox="0 0 37 37" fill="none" xmlns="http://www.w3.org/2000/svg">
<path d="M18.5 37C14.8411 37 11.2643 35.915 8.22196 33.8822C5.17965 31.8494 2.80845 28.9601 1.40823 25.5796C0.00801201 22.1992 -0.358345 18.4795 0.355482 14.8908C1.06931 11.3022 2.83126 8.00581 5.41853 5.41853C8.0058 2.83126 11.3022 1.06931 14.8908 0.35548C18.4795 -0.358346 22.1992 0.00801694 25.5796 1.40824C28.9601 2.80846 31.8494 5.17965 33.8822 8.22196C35.915 11.2643 37 14.8411 37 18.5C36.9944 23.4048 35.0436 28.1071 31.5753 31.5753C28.1071 35.0436 23.4048 36.9944 18.5 37V37ZM18.5 0.880965C15.0153 0.880965 11.6088 1.9143 8.71139 3.85031C5.81395 5.78631 3.55567 8.53803 2.22213 11.7575C0.888585 14.9769 0.539669 18.5196 1.2195 21.9373C1.89934 25.3551 3.57739 28.4945 6.04146 30.9586C8.50553 33.4226 11.6449 35.1007 15.0627 35.7805C18.4805 36.4603 22.0231 36.1114 25.2425 34.7779C28.462 33.4443 31.2137 31.1861 33.1497 28.2886C35.0857 25.3912 36.119 21.9847 36.119 18.5C36.1138 13.8288 34.2558 9.35036 30.9527 6.0473C27.6496 2.74423 23.1712 0.886244 18.5 0.880965V0.880965Z" fill="#3F3D56"/>
<path fill-rule="evenodd" clip-rule="evenodd" d="M30 18.5684C29.9996 16.3573 29.3695 14.1926 28.1844 12.3306C26.9992 10.4686 25.3086 8.98727 23.3127 8.06194C21.3167 7.13661 19.0991 6.80607 16.9223 7.10942C14.7454 7.41277 12.7005 8.33732 11.0297 9.77362C9.35891 11.2099 8.13211 13.0978 7.49457 15.2138C6.85702 17.3299 6.83543 19.5854 7.43234 21.7133C8.02926 23.8413 9.21969 25.7526 10.8627 27.2211C12.5057 28.6895 14.5325 29.6535 16.7031 29.999V21.9141H13.7824V18.5684H16.7031V16.0188C16.7031 13.1194 18.4204 11.5166 21.0469 11.5166C21.9095 11.5287 22.77 11.6043 23.6216 11.7428V14.5905H22.1707C20.743 14.5905 20.2964 15.4821 20.2964 16.3984V18.5689H23.4855L22.9763 21.9146H20.2964V30C23.0016 29.5689 25.4652 28.1807 27.244 26.0852C29.0228 23.9896 30.0001 21.3242 30 18.5684L30 18.5684Z" fill="#3F3D56"/>
</svg>
