<svg width="37" height="37" viewBox="0 0 37 37" fill="none" xmlns="http://www.w3.org/2000/svg">
<path d="M18.5 37C14.8411 37 11.2643 35.915 8.22196 33.8822C5.17965 31.8494 2.80845 28.9601 1.40823 25.5796C0.00801201 22.1992 -0.358345 18.4795 0.355482 14.8908C1.06931 11.3022 2.83126 8.00581 5.41853 5.41853C8.0058 2.83126 11.3022 1.06931 14.8908 0.35548C18.4795 -0.358346 22.1992 0.00801694 25.5796 1.40824C28.9601 2.80846 31.8494 5.17965 33.8822 8.22196C35.915 11.2643 37 14.8411 37 18.5C36.9944 23.4048 35.0436 28.1071 31.5753 31.5753C28.1071 35.0436 23.4048 36.9944 18.5 37ZM18.5 0.880965C15.0153 0.880965 11.6088 1.9143 8.71139 3.85031C5.81395 5.78631 3.55567 8.53803 2.22213 11.7575C0.888585 14.9769 0.539669 18.5196 1.2195 21.9373C1.89934 25.3551 3.57739 28.4945 6.04146 30.9585C8.50553 33.4226 11.6449 35.1007 15.0627 35.7805C18.4805 36.4603 22.0231 36.1114 25.2425 34.7779C28.462 33.4443 31.2137 31.1861 33.1497 28.2886C35.0857 25.3912 36.119 21.9847 36.119 18.5C36.1138 13.8288 34.2558 9.35036 30.9527 6.0473C27.6496 2.74423 23.1712 0.886244 18.5 0.880965Z" fill="#3F3D56"/>
<path d="M29.8173 12.0392L24.1237 17.6643C24.1137 17.6736 24.1058 17.6848 24.1003 17.6972C24.0949 17.7096 24.0921 17.7229 24.0921 17.7363C24.0921 17.7498 24.0949 17.7631 24.1003 17.7755C24.1058 17.7879 24.1137 17.7991 24.1237 17.8084L28.1185 21.9334C28.2141 22.027 28.2791 22.1458 28.3054 22.275C28.3316 22.4043 28.318 22.5382 28.2662 22.66C28.2144 22.7817 28.1267 22.8859 28.0141 22.9594C27.9015 23.0329 27.7691 23.0725 27.6335 23.0732C27.4509 23.0729 27.2759 23.0025 27.1465 22.8774L23.1726 18.7671C23.1523 18.7477 23.125 18.7369 23.0965 18.7369C23.068 18.7369 23.0407 18.7477 23.0204 18.7671L22.0522 19.7167C21.6557 20.1104 21.1823 20.4232 20.6596 20.6367C20.1369 20.8502 19.5755 20.9601 19.0085 20.9599C18.4307 20.9573 17.8593 20.8429 17.3276 20.6234C16.7958 20.4039 16.3145 20.0838 15.9116 19.6816L14.9814 18.7579C14.9611 18.7385 14.9338 18.7276 14.9053 18.7276C14.8768 18.7276 14.8495 18.7385 14.8292 18.7579L10.8648 22.859C10.8011 22.921 10.7253 22.9702 10.6419 23.0038C10.5585 23.0374 10.4691 23.0547 10.3788 23.0547C10.2885 23.0547 10.1991 23.0374 10.1157 23.0038C10.0323 22.9702 9.95656 22.921 9.89277 22.859C9.82864 22.7971 9.77774 22.7236 9.74301 22.6426C9.70828 22.5616 9.6904 22.4747 9.6904 22.387C9.6904 22.2992 9.70828 22.2123 9.74301 22.1313C9.77774 22.0503 9.82864 21.9768 9.89277 21.915L13.8723 17.7991C13.89 17.7791 13.8997 17.7535 13.8997 17.7271C13.8997 17.7007 13.89 17.6751 13.8723 17.6551L8.17882 12.03C8.16418 12.0157 8.1455 12.0059 8.12515 12.002C8.1048 11.998 8.0837 12 8.06453 12.0077C8.04536 12.0155 8.02899 12.0286 8.0175 12.0453C8.00601 12.0621 7.99992 12.0819 8 12.102V23.3577C8.00151 23.7928 8.18016 24.2097 8.49698 24.5174C8.8138 24.825 9.24308 24.9985 9.69113 25H28.3088C28.7568 24.9985 29.1861 24.825 29.5029 24.5174C29.8197 24.2097 29.9984 23.7928 29.9999 23.3577V12.1112C30.0008 12.0903 29.9951 12.0696 29.9834 12.0519C29.9718 12.0343 29.9548 12.0206 29.9348 12.0127C29.9147 12.0048 29.8927 12.0031 29.8717 12.0079C29.8507 12.0126 29.8316 12.0235 29.8173 12.0392V12.0392Z" fill="#3F3D56"/>
<path d="M18.9919 19.9999C19.4016 20.0034 19.808 19.9347 20.1868 19.798C20.5656 19.6612 20.9092 19.4591 21.1972 19.2037L30 11.3538C29.6875 11.1271 29.2951 11.002 28.8893 11H9.1107C8.70476 11.0012 8.31198 11.1263 8 11.3538L16.8048 19.2037C17.0902 19.4577 17.4308 19.659 17.8064 19.7957C18.1821 19.9324 18.5852 20.0019 18.9919 19.9999V19.9999Z" fill="#3F3D56"/>
</svg>
