<svg width="37" height="37" viewBox="0 0 37 37" fill="none" xmlns="http://www.w3.org/2000/svg">
<path d="M18.5 37C14.8411 37 11.2643 35.915 8.22196 33.8822C5.17965 31.8494 2.80845 28.9601 1.40823 25.5796C0.00801201 22.1992 -0.358345 18.4795 0.355482 14.8908C1.06931 11.3022 2.83126 8.00581 5.41853 5.41853C8.0058 2.83126 11.3022 1.06931 14.8908 0.35548C18.4795 -0.358346 22.1992 0.00801694 25.5796 1.40824C28.9601 2.80846 31.8494 5.17965 33.8822 8.22196C35.915 11.2643 37 14.8411 37 18.5C36.9944 23.4048 35.0436 28.1071 31.5753 31.5753C28.1071 35.0436 23.4048 36.9944 18.5 37ZM18.5 0.880965C15.0153 0.880965 11.6088 1.9143 8.71139 3.85031C5.81395 5.78631 3.55567 8.53803 2.22213 11.7575C0.888585 14.9769 0.539669 18.5196 1.2195 21.9373C1.89934 25.3551 3.57739 28.4945 6.04146 30.9585C8.50553 33.4226 11.6449 35.1007 15.0627 35.7805C18.4805 36.4603 22.0231 36.1114 25.2425 34.7779C28.462 33.4443 31.2137 31.1861 33.1497 28.2886C35.0857 25.3912 36.119 21.9847 36.119 18.5C36.1138 13.8288 34.2558 9.35036 30.9527 6.0473C27.6496 2.74423 23.1712 0.886244 18.5 0.880965Z" fill="#3F3D56"/>
<path d="M30.3339 25.0085C29.4554 24.1301 27.3424 22.8048 26.2948 22.3101C25.0856 21.7295 24.6412 21.7396 23.7855 22.358C23.0736 22.8629 22.6116 23.3501 21.7936 23.1708C20.9757 22.9916 19.355 21.7699 17.7873 20.2074C16.2196 18.6448 15.0028 17.0344 14.8286 16.2039C14.6545 15.3734 15.1341 14.9216 15.6441 14.2097C16.26 13.354 16.2777 12.9097 15.692 11.7006C15.1871 10.653 13.8769 8.54527 12.9908 7.66177C12.1047 6.77828 11.9129 6.97265 11.4282 7.15692C10.9294 7.36601 10.4503 7.61945 9.99682 7.9142C9.11831 8.50235 8.62604 8.99206 8.28019 9.72915C7.93434 10.4662 7.54304 11.8344 9.55504 15.4163C11.0393 18.1565 12.9191 20.6631 15.1341 22.8553C17.334 25.0751 19.8494 26.9583 22.599 28.444C26.1786 30.4634 27.5494 30.0621 28.2866 29.7188C29.0237 29.3755 29.5135 28.8883 30.0991 28.0023C30.3945 27.5491 30.648 27.0701 30.8565 26.571C31.0231 26.0864 31.22 25.8895 30.3339 25.0085Z" fill="#3F3D56"/>
</svg>
